<?xml version="1.0" encoding="UTF-8"?>
<svg xmlns="http://www.w3.org/2000/svg" xmlns:xlink="http://www.w3.org/1999/xlink" width="65px" height="52px" viewBox="0 0 65 52" version="1.1">
<g id="surface1">
<path style=" stroke:none;fill-rule:evenodd;fill:rgb(47.45098%,32.156863%,70.196078%);fill-opacity:1;" d="M 13.5 0.0078125 C 9.792969 0.0078125 7.046875 3.265625 7.171875 6.800781 C 7.289062 10.195312 7.136719 14.59375 6.03125 18.179688 C 4.925781 21.777344 3.054688 24.054688 0 24.347656 L 0 27.652344 C 3.054688 27.945312 4.925781 30.222656 6.03125 33.820312 C 7.136719 37.40625 7.289062 41.804688 7.171875 45.199219 C 7.046875 48.734375 9.792969 51.992188 13.5 51.992188 L 51.503906 51.992188 C 55.214844 51.992188 57.957031 48.734375 57.835938 45.199219 C 57.714844 41.804688 57.871094 37.40625 58.972656 33.820312 C 60.078125 30.222656 61.945312 27.945312 65 27.652344 L 65 24.347656 C 61.945312 24.054688 60.078125 21.777344 58.972656 18.179688 C 57.871094 14.59375 57.714844 10.195312 57.835938 6.800781 C 57.957031 3.265625 55.214844 0.0078125 51.503906 0.0078125 Z M 44.066406 32.007812 C 44.066406 36.875 40.453125 39.828125 34.453125 39.828125 L 24.238281 39.828125 C 23.628906 39.828125 23.136719 39.332031 23.136719 38.71875 L 23.136719 13.28125 C 23.136719 12.667969 23.628906 12.171875 24.238281 12.171875 L 34.394531 12.171875 C 39.398438 12.171875 42.679688 14.894531 42.679688 19.074219 C 42.679688 22.003906 40.472656 24.628906 37.65625 25.089844 L 37.65625 25.242188 C 41.488281 25.664062 44.066406 28.328125 44.066406 32.007812 Z M 33.335938 15.679688 L 27.515625 15.679688 L 27.515625 23.941406 L 32.417969 23.941406 C 36.210938 23.941406 38.300781 22.40625 38.300781 19.667969 C 38.300781 17.097656 36.503906 15.679688 33.335938 15.679688 Z M 27.515625 27.214844 L 27.515625 36.320312 L 33.550781 36.320312 C 37.5 36.320312 39.589844 34.726562 39.589844 31.738281 C 39.589844 28.75 37.441406 27.214844 33.296875 27.214844 Z M 27.515625 27.214844 "/>
</g>
</svg>
